<svg xmlns="http://www.w3.org/2000/svg" width="284" height="131" viewBox="0 0 284 131">
  <g id="Group_401" data-name="Group 401" transform="translate(-196 -17.999)">
    <g id="Group_400" data-name="Group 400" transform="translate(93 18)">
      <path id="Subtraction_2" data-name="Subtraction 2" d="M-1969-6753h-264a10.011,10.011,0,0,1-10-10v-121h284v121A10.011,10.011,0,0,1-1969-6753Z" transform="translate(2346 6884)" fill="#21619f"/>
      <g id="Logo" transform="translate(123.705 -13.292)">
        <rect id="Rectangle_2523" data-name="Rectangle 2523" width="128.362" height="14.452" transform="translate(71.715 105.383)" fill="#fff"/>
        <g id="Group_386" data-name="Group 386" transform="translate(76.861 108.694)">
          <path id="Path_203" data-name="Path 203" d="M73.415,107.4a4.341,4.341,0,0,1,.36-1.839,3.769,3.769,0,0,1,.948-1.285,3.817,3.817,0,0,1,1.335-.753,4.867,4.867,0,0,1,1.524-.244,5.5,5.5,0,0,1,1.152.121,4.346,4.346,0,0,1,1.064.377v1.584a2.867,2.867,0,0,0-.887-.448,3.481,3.481,0,0,0-2.056-.012,2.439,2.439,0,0,0-.875.472,2.38,2.38,0,0,0-.62.825,2.787,2.787,0,0,0-.239,1.2,2.454,2.454,0,0,0,.232,1.108,2.188,2.188,0,0,0,.621.765,2.632,2.632,0,0,0,.88.443,3.537,3.537,0,0,0,1,.144,3.764,3.764,0,0,0,1.119-.16,2.292,2.292,0,0,0,.876-.483v1.629a4.812,4.812,0,0,1-1.064.371,5.389,5.389,0,0,1-1.186.128,5.031,5.031,0,0,1-1.528-.239,3.962,3.962,0,0,1-1.341-.72,3.647,3.647,0,0,1-.953-1.224A3.948,3.948,0,0,1,73.415,107.4Z" transform="translate(-73.415 -103.28)" fill="#004f8f"/>
          <path id="Path_204" data-name="Path 204" d="M82,107.313a4.587,4.587,0,0,1,.255-1.519,3.676,3.676,0,0,1,.77-1.291,3.713,3.713,0,0,1,1.292-.892,5.063,5.063,0,0,1,3.607,0,3.658,3.658,0,0,1,2.061,2.183,4.56,4.56,0,0,1,0,3.036,3.656,3.656,0,0,1-2.061,2.184,5.063,5.063,0,0,1-3.607,0,3.727,3.727,0,0,1-1.292-.892,3.671,3.671,0,0,1-.77-1.292A4.576,4.576,0,0,1,82,107.313Zm6.538,0a3.058,3.058,0,0,0-.149-.964,2.142,2.142,0,0,0-1.213-1.329,2.6,2.6,0,0,0-1.053-.2,2.625,2.625,0,0,0-1.064.2,2.142,2.142,0,0,0-1.213,1.329,3.185,3.185,0,0,0,0,1.928,2.142,2.142,0,0,0,1.213,1.329,2.625,2.625,0,0,0,1.064.2,2.6,2.6,0,0,0,1.053-.2,2.142,2.142,0,0,0,1.213-1.329A3.058,3.058,0,0,0,88.538,107.313Z" transform="translate(-72.774 -103.28)" fill="#004f8f"/>
          <path id="Path_205" data-name="Path 205" d="M94.383,103.424v6.261h3.8v1.5H92.72v-7.757Z" transform="translate(-71.973 -103.269)" fill="#004f8f"/>
          <path id="Path_206" data-name="Path 206" d="M102.191,103.424v6.261h3.8v1.5H100.53v-7.757Z" transform="translate(-71.389 -103.269)" fill="#004f8f"/>
          <path id="Path_207" data-name="Path 207" d="M107.977,111.181l3.169-7.757h1.795l3.159,7.757h-1.717l-.565-1.452H110.27l-.576,1.452Zm2.815-2.827h2.5l-1.085-2.78c-.03-.082-.057-.167-.083-.256s-.054-.206-.084-.355c-.029.148-.057.267-.083.355a1.813,1.813,0,0,1-.095.256Z" transform="translate(-70.833 -103.269)" fill="#004f8f"/>
          <path id="Path_208" data-name="Path 208" d="M121.607,103.424a3.489,3.489,0,0,1,1.961.483,1.658,1.658,0,0,1,.72,1.479,1.74,1.74,0,0,1-.327,1.1,1.786,1.786,0,0,1-.848.593,2.763,2.763,0,0,1,.553.238,1.913,1.913,0,0,1,.477.383,1.74,1.74,0,0,1,.332.555,2.109,2.109,0,0,1,.123.753,1.881,1.881,0,0,1-.289,1.085,2.05,2.05,0,0,1-.731.66,3.215,3.215,0,0,1-.981.332,6.1,6.1,0,0,1-1.047.095h-3.335v-7.757Zm1.329,5.408a1,1,0,0,0-.111-.5.823.823,0,0,0-.3-.305,1.219,1.219,0,0,0-.427-.149,3.013,3.013,0,0,0-.483-.039h-1.751v1.995h1.663a3.56,3.56,0,0,0,.532-.039,1.373,1.373,0,0,0,.448-.144.808.808,0,0,0,.311-.3A1,1,0,0,0,122.936,108.832Zm-.3-3.159a.761.761,0,0,0-.311-.676,1.533,1.533,0,0,0-.864-.211h-1.585v1.773h1.673a1.319,1.319,0,0,0,.781-.216A.766.766,0,0,0,122.637,105.673Z" transform="translate(-70.068 -103.269)" fill="#004f8f"/>
          <path id="Path_209" data-name="Path 209" d="M126.763,107.313a4.587,4.587,0,0,1,.255-1.519,3.663,3.663,0,0,1,.771-1.291,3.708,3.708,0,0,1,1.291-.892,5.063,5.063,0,0,1,3.607,0,3.658,3.658,0,0,1,2.061,2.183,4.56,4.56,0,0,1,0,3.036,3.656,3.656,0,0,1-2.061,2.184,5.063,5.063,0,0,1-3.607,0,3.722,3.722,0,0,1-1.291-.892,3.658,3.658,0,0,1-.771-1.292A4.577,4.577,0,0,1,126.763,107.313Zm6.538,0a3.058,3.058,0,0,0-.149-.964,2.142,2.142,0,0,0-1.213-1.329,2.592,2.592,0,0,0-1.052-.2,2.621,2.621,0,0,0-1.064.2,2.135,2.135,0,0,0-1.213,1.329,3.186,3.186,0,0,0,0,1.928,2.169,2.169,0,0,0,.454.792,2.192,2.192,0,0,0,.76.537,2.621,2.621,0,0,0,1.064.2,2.592,2.592,0,0,0,1.052-.2,2.142,2.142,0,0,0,1.213-1.329A3.058,3.058,0,0,0,133.3,107.313Z" transform="translate(-69.429 -103.28)" fill="#004f8f"/>
          <path id="Path_210" data-name="Path 210" d="M137.484,111.181v-7.757h3.192a5.447,5.447,0,0,1,1.119.116,2.748,2.748,0,0,1,.986.411,2.24,2.24,0,0,1,.7.781,2.47,2.47,0,0,1,.272,1.219,2.665,2.665,0,0,1-.133.881,2.144,2.144,0,0,1-.36.659,2.105,2.105,0,0,1-.537.465,3.022,3.022,0,0,1-.665.3l2.316,2.925h-1.917l-2.094-2.716h-1.219v2.716Zm1.663-4.1h1.607a1.957,1.957,0,0,0,.5-.061,1.219,1.219,0,0,0,.415-.195.931.931,0,0,0,.288-.337,1.086,1.086,0,0,0,.105-.5,1.116,1.116,0,0,0-.105-.509.877.877,0,0,0-.288-.339,1.293,1.293,0,0,0-.415-.188,1.957,1.957,0,0,0-.5-.061h-1.607Z" transform="translate(-68.628 -103.269)" fill="#004f8f"/>
          <path id="Path_211" data-name="Path 211" d="M146.242,111.181l3.169-7.757h1.795l3.159,7.757h-1.718l-.565-1.452h-3.546l-.576,1.452Zm2.815-2.827h2.5l-1.087-2.78c-.029-.082-.057-.167-.083-.256s-.054-.206-.083-.355c-.03.148-.058.267-.083.355a2.124,2.124,0,0,1-.095.256Z" transform="translate(-67.973 -103.269)" fill="#004f8f"/>
          <path id="Path_212" data-name="Path 212" d="M161.447,103.424v1.5h-2.382v6.261h-1.652V104.92h-2.382v-1.5Z" transform="translate(-67.317 -103.269)" fill="#004f8f"/>
          <path id="Path_213" data-name="Path 213" d="M165.389,103.424v7.757h-1.662v-7.757Z" transform="translate(-66.667 -103.269)" fill="#004f8f"/>
          <path id="Path_214" data-name="Path 214" d="M170.985,111.181l-3.015-7.757h1.8l2.072,5.807,2.083-5.807h1.795l-3.025,7.757Z" transform="translate(-66.35 -103.269)" fill="#004f8f"/>
          <path id="Path_215" data-name="Path 215" d="M183.337,103.424v1.463h-3.8v1.651H183v1.452h-3.469v1.729H183.4v1.463h-5.529v-7.757Z" transform="translate(-65.61 -103.269)" fill="#004f8f"/>
        </g>
        <g id="Group_387" data-name="Group 387" transform="translate(27.295 30.825)">
          <path id="Path_216" data-name="Path 216" d="M66.276,39.92H63.263V55.7a8.368,8.368,0,0,1-.556,3.228,5.309,5.309,0,0,1-1.56,2.133,6.263,6.263,0,0,1-2.367,1.166,11.656,11.656,0,0,1-2.977.359,11.868,11.868,0,0,1-3-.359,6.259,6.259,0,0,1-2.385-1.166,5.288,5.288,0,0,1-1.559-2.133,8.327,8.327,0,0,1-.557-3.228V39.92H45.295V55.844a10.7,10.7,0,0,0,.861,4.536,8.022,8.022,0,0,0,2.3,2.977,8.832,8.832,0,0,0,3.335,1.614,16.775,16.775,0,0,0,8,0,8.84,8.84,0,0,0,3.335-1.614,8.022,8.022,0,0,0,2.3-2.977,10.7,10.7,0,0,0,.861-4.536Z" transform="translate(-25.95 -30.146)" fill="#fff"/>
          <path id="Path_217" data-name="Path 217" d="M83.912,54.1a6.7,6.7,0,0,0,3.6-3.586,7.429,7.429,0,0,0,.556-2.994,7.217,7.217,0,0,0-.824-3.6,6.831,6.831,0,0,0-2.17-2.348A8.9,8.9,0,0,0,82.048,40.3a15.4,15.4,0,0,0-3.371-.377H68.85V65.025h3.012v-9.9h6.025L86.815,65.9l2.563-1.458-8.012-9.565A12.217,12.217,0,0,0,83.912,54.1ZM78.82,52.258H71.862V42.789H78.82A11.727,11.727,0,0,1,81.044,43a6.155,6.155,0,0,1,2.009.753,4.074,4.074,0,0,1,1.434,1.453,5.236,5.236,0,0,1,0,4.626,4.074,4.074,0,0,1-1.434,1.453,6.179,6.179,0,0,1-2.009.753A11.728,11.728,0,0,1,78.82,52.258Z" transform="translate(-24.19 -30.146)" fill="#fff"/>
          <path id="Path_218" data-name="Path 218" d="M95.055,47.093V44.941l15.1,20.084h2.8V39.92h-3.012V59.968L94.84,39.92h-2.8v25.1h3.013Z" transform="translate(-22.457 -30.146)" fill="#fff"/>
          <path id="Path_219" data-name="Path 219" d="M129.593,47.093V44.941l15.1,20.084h2.8V39.92h-3.013V59.968l-15.1-20.048h-2.8v25.1h3.013Z" transform="translate(-19.877 -30.146)" fill="#fff"/>
          <path id="Path_220" data-name="Path 220" d="M153.465,62.545a12.1,12.1,0,0,0,4.357,2.242,18.35,18.35,0,0,0,5.039.7,19.543,19.543,0,0,0,4.071-.43,17.353,17.353,0,0,0,3.783-1.255v-9.76H167.7v7.643a8.306,8.306,0,0,1-2.152.7,13.121,13.121,0,0,1-2.475.233,15.038,15.038,0,0,1-3.909-.52,9.673,9.673,0,0,1-3.461-1.7,8.743,8.743,0,0,1-2.475-3.121,10.772,10.772,0,0,1-.95-4.77,10.461,10.461,0,0,1,.932-4.608,8.982,8.982,0,0,1,2.457-3.138,10.093,10.093,0,0,1,3.443-1.793,13.51,13.51,0,0,1,3.892-.574,15.922,15.922,0,0,1,3.8.448,11.014,11.014,0,0,1,3.3,1.38V41.205a16.376,16.376,0,0,0-3.6-1.255,17.948,17.948,0,0,0-3.927-.43,15.16,15.16,0,0,0-4.9.807,12.623,12.623,0,0,0-4.268,2.439,12.155,12.155,0,0,0-3.031,4.071,13.172,13.172,0,0,0-1.148,5.666,14.068,14.068,0,0,0,1.166,6.025A11.23,11.23,0,0,0,153.465,62.545Z" transform="translate(-18.184 -30.176)" fill="#fff"/>
          <path id="Path_221" data-name="Path 221" d="M85.241,68.647a9.6,9.6,0,0,0-3.389-1.309,21.567,21.567,0,0,0-4.125-.377H69.157V80.3H64.426v2.865h4.731v8.9h3.012V83.172h5.558a21.654,21.654,0,0,0,4.125-.376,9.6,9.6,0,0,0,3.389-1.31,6.676,6.676,0,0,0,2.3-2.492,9.573,9.573,0,0,0,0-7.854A6.684,6.684,0,0,0,85.241,68.647Zm-.5,9.019a4.341,4.341,0,0,1-1.614,1.614,6.828,6.828,0,0,1-2.367.807,18.226,18.226,0,0,1-2.887.215H73.548v0H72.169V69.83h5.7a18.711,18.711,0,0,1,2.9.215,6.683,6.683,0,0,1,2.367.807,4.437,4.437,0,0,1,1.6,1.6,6.043,6.043,0,0,1,0,5.218Z" transform="translate(-24.521 -28.125)" fill="#fff"/>
          <path id="Path_222" data-name="Path 222" d="M144.487,84.858v2.152l-15.1-20.048h-2.8v25.1H129.6V71.982l15.1,20.084h2.8v-25.1h-3.013Z" transform="translate(-19.876 -28.125)" fill="#fff"/>
          <path id="Path_223" data-name="Path 223" d="M188.415,82.843a6.534,6.534,0,0,0-1.686-2.008,10.342,10.342,0,0,0-2.385-1.4q-1.344-.574-2.762-1.04t-2.761-.9a12.562,12.562,0,0,1-2.385-1.022,5.782,5.782,0,0,1-1.686-1.4,3.084,3.084,0,0,1-.645-1.99,3.007,3.007,0,0,1,1.65-2.833,6.225,6.225,0,0,1,1.829-.628,12.367,12.367,0,0,1,2.295-.2,14.322,14.322,0,0,1,3.91.485,12.1,12.1,0,0,1,3.479,1.488V68.39a13.368,13.368,0,0,0-3.515-1.344,17.348,17.348,0,0,0-4.088-.485,12.773,12.773,0,0,0-3.281.413,8.608,8.608,0,0,0-2.744,1.237,6.216,6.216,0,0,0-1.883,2.062,5.839,5.839,0,0,0-.7,2.922,5.629,5.629,0,0,0,.646,2.8,6.43,6.43,0,0,0,1.685,1.955,10.2,10.2,0,0,0,2.386,1.363q1.344.556,2.761,1.022t2.762.933a13.408,13.408,0,0,1,2.385,1.076,5.634,5.634,0,0,1,1.685,1.47,3.422,3.422,0,0,1,.646,2.116,2.982,2.982,0,0,1-.52,1.794,3.7,3.7,0,0,1-1.4,1.147,7.093,7.093,0,0,1-2.062.61,16.546,16.546,0,0,1-2.475.179,17.237,17.237,0,0,1-4.268-.538,15.12,15.12,0,0,1-4.125-1.757v3.012a16.2,16.2,0,0,0,3.982,1.6,18.428,18.428,0,0,0,4.626.556,16.633,16.633,0,0,0,3.479-.359A9.165,9.165,0,0,0,186.227,91a5.891,5.891,0,0,0,2.833-5.29A5.921,5.921,0,0,0,188.415,82.843Z" transform="translate(-16.554 -28.155)" fill="#fff"/>
          <path id="Path_224" data-name="Path 224" d="M48.635,35.342l3.892-2.258-3.892-2.258V31.6H27.3V34.47h9.811V63.955h3.013V34.47h8.516Z" transform="translate(-27.295 -30.825)" fill="#fff"/>
          <path id="Path_225" data-name="Path 225" d="M112.206,70.653a12.225,12.225,0,0,0-4.1-2.936,15.433,15.433,0,0,0-11.5,0,12.21,12.21,0,0,0-4.1,2.936,11.991,11.991,0,0,0-2.454,4.155,14.476,14.476,0,0,0,0,9.526,11.986,11.986,0,0,0,2.454,4.154,12.213,12.213,0,0,0,4.1,2.937,15.433,15.433,0,0,0,11.5,0,12.228,12.228,0,0,0,4.1-2.937,12,12,0,0,0,2.454-4.154,14.495,14.495,0,0,0,0-9.526A12.007,12.007,0,0,0,112.206,70.653Zm-.393,12.678a9.077,9.077,0,0,1-1.862,3.223,9.359,9.359,0,0,1-3.152,2.256,11.9,11.9,0,0,1-8.881,0,9.344,9.344,0,0,1-3.151-2.256A9.061,9.061,0,0,1,92.9,83.332a11.928,11.928,0,0,1,0-7.521,9.052,9.052,0,0,1,1.862-3.223,9.329,9.329,0,0,1,3.151-2.256,11.9,11.9,0,0,1,8.881,0,9.345,9.345,0,0,1,3.152,2.256,9.068,9.068,0,0,1,1.862,3.223,11.928,11.928,0,0,1,0,7.521Z" transform="translate(-22.666 -28.152)" fill="#fff"/>
          <path id="Path_226" data-name="Path 226" d="M167.474,67.019H149.383v2.869H157.5V92.124h3.013V69.888h6.963v.82l3.892-2.258-3.892-2.258Z" transform="translate(-18.173 -28.183)" fill="#fff"/>
          <path id="Path_227" data-name="Path 227" d="M121.447,40.309l-2.258-3.892-2.258,3.892h.752V69.94h.01V94.348h3.013v-25.1h-.01V40.309Z" transform="translate(-20.598 -30.408)" fill="#fff"/>
        </g>
      </g>
    </g>
  </g>
</svg>
